<svg width="48" height="48" viewBox="0 0 48 48" fill="none" xmlns="http://www.w3.org/2000/svg">
<circle cx="24" cy="24" r="24" fill="#0075FF"/>
<path d="M17.779 17.341C18.607 17.089 19.471 16.9 20.371 16.774C21.271 16.63 22.216 16.558 23.206 16.558C23.44 16.558 23.674 16.567 23.908 16.585C24.16 16.585 24.403 16.594 24.637 16.612C24.475 16.612 24.304 16.612 24.124 16.612C23.962 16.594 23.8 16.585 23.638 16.585C22.756 16.585 21.901 16.63 21.073 16.72C20.263 16.792 19.57 16.891 18.994 17.017C18.814 17.071 18.616 17.125 18.4 17.179C18.202 17.215 17.995 17.269 17.779 17.341ZM27.85 34.945C27.346 34.819 27.022 34.666 26.878 34.486C26.734 34.324 26.653 34.162 26.635 34C26.257 33.694 25.861 33.298 25.447 32.812C25.033 32.308 24.664 31.714 24.34 31.03C24.034 30.346 23.818 29.599 23.692 28.789V28.627C23.692 28.447 23.755 28.357 23.881 28.357C23.971 28.357 24.079 28.402 24.205 28.492L24.286 28.438C24.322 28.42 24.349 28.402 24.367 28.384C24.403 28.366 24.439 28.348 24.475 28.33C25.285 28.15 26.149 27.898 27.067 27.574C28.003 27.232 28.921 26.836 29.821 26.386C30.721 25.918 31.531 25.423 32.251 24.901C32.989 24.361 33.574 23.812 34.006 23.254C34.456 22.678 34.681 22.12 34.681 21.58C34.681 21.076 34.456 20.635 34.006 20.257C33.574 19.879 33.025 19.564 32.359 19.312C31.711 19.042 31.072 18.844 30.442 18.718C30.244 18.934 29.92 19.303 29.47 19.825C29.038 20.347 28.534 20.968 27.958 21.688C27.382 22.408 26.77 23.173 26.122 23.983C25.492 24.793 24.871 25.594 24.259 26.386C23.917 26.836 23.548 27.34 23.152 27.898C22.756 28.438 22.369 28.996 21.991 29.572C21.631 30.13 21.334 30.661 21.1 31.165C20.866 31.669 20.749 32.101 20.749 32.461C20.749 32.641 20.776 32.785 20.83 32.893C21.622 33.019 22.018 33.244 22.018 33.568C22.018 33.748 21.856 33.91 21.532 34.054C21.226 34.216 20.812 34.297 20.29 34.297C20.164 34.297 20.038 34.288 19.912 34.27C19.786 34.27 19.651 34.261 19.507 34.243C19.093 34.171 18.805 33.991 18.643 33.703C18.499 33.397 18.427 33.073 18.427 32.731C18.427 32.389 18.472 32.083 18.562 31.813C18.67 31.453 18.931 30.931 19.345 30.247C19.759 29.545 20.263 28.762 20.857 27.898C21.451 27.016 22.081 26.107 22.747 25.171C23.413 24.217 24.07 23.299 24.718 22.417C25.366 21.535 25.951 20.752 26.473 20.068C26.995 19.366 27.391 18.835 27.661 18.475C27.301 18.763 27.004 19.078 26.77 19.42C26.554 19.744 26.356 19.924 26.176 19.96C26.392 19.708 26.68 19.375 27.04 18.961C27.4 18.547 27.625 18.169 27.715 17.827C27.571 17.791 27.409 17.773 27.229 17.773C27.049 17.773 26.86 17.773 26.662 17.773C25.816 17.773 24.79 17.845 23.584 17.989C22.378 18.133 21.235 18.322 20.155 18.556C19.975 18.592 19.669 18.691 19.237 18.853C18.805 18.997 18.31 19.186 17.752 19.42C17.212 19.654 16.672 19.924 16.132 20.23C15.592 20.536 15.124 20.869 14.728 21.229C14.35 21.571 14.107 21.931 13.999 22.309C14.071 22.453 14.107 22.588 14.107 22.714C14.107 22.966 13.981 23.092 13.729 23.092C13.513 23.092 13.279 22.966 13.027 22.714C12.775 22.462 12.649 22.111 12.649 21.661C12.649 21.427 12.685 21.202 12.757 20.986C12.847 20.698 12.964 20.437 13.108 20.203C13.27 19.951 13.459 19.717 13.675 19.501C13.837 19.429 14.152 19.258 14.62 18.988C15.106 18.718 15.619 18.448 16.159 18.178C16.717 17.89 17.194 17.683 17.59 17.557C18.382 17.287 19.264 17.071 20.236 16.909C21.226 16.729 22.297 16.639 23.449 16.639C24.133 16.639 24.862 16.675 25.636 16.747C26.41 16.819 27.211 16.936 28.039 17.098C28.165 17.134 28.228 17.125 28.228 17.071C28.228 17.035 28.156 17.008 28.012 16.99C27.562 16.9 27.112 16.828 26.662 16.774C26.212 16.702 25.771 16.657 25.339 16.639C25.771 16.657 26.194 16.693 26.608 16.747C27.04 16.783 27.454 16.846 27.85 16.936V16.855C27.85 16.729 27.922 16.666 28.066 16.666C28.102 16.666 28.192 16.684 28.336 16.72C28.48 16.774 28.66 16.855 28.876 16.963C29.11 17.071 29.335 17.197 29.551 17.341C30.181 17.341 30.856 17.413 31.576 17.557C32.296 17.701 32.98 17.917 33.628 18.205C34.276 18.493 34.807 18.853 35.221 19.285C35.635 19.717 35.842 20.221 35.842 20.797C35.842 21.193 35.734 21.607 35.518 22.039C35.572 22.273 35.599 22.507 35.599 22.741C35.599 23.263 35.491 23.749 35.275 24.199C35.077 24.649 34.798 25.063 34.438 25.441C34.6 25.279 34.762 25.081 34.924 24.847C35.104 24.613 35.293 24.307 35.491 23.929C35.329 24.433 35.131 24.829 34.897 25.117C34.681 25.387 34.465 25.621 34.249 25.819C33.835 26.233 33.385 26.566 32.899 26.818C32.413 27.052 31.792 27.349 31.036 27.709C30.856 27.781 30.622 27.862 30.334 27.952C30.064 28.024 29.767 28.105 29.443 28.195C29.641 28.141 29.857 28.06 30.091 27.952C30.325 27.844 30.577 27.718 30.847 27.574C30.451 27.7 30.028 27.835 29.578 27.979C29.146 28.105 28.75 28.222 28.39 28.33C28.03 28.438 27.769 28.51 27.607 28.546L27.553 28.573C27.733 28.555 27.913 28.537 28.093 28.519C28.273 28.483 28.453 28.447 28.633 28.411C28.687 28.393 28.741 28.375 28.795 28.357C28.795 28.357 28.786 28.357 28.768 28.357C28.75 28.357 28.705 28.375 28.633 28.411C27.895 28.573 27.193 28.699 26.527 28.789C25.879 28.879 25.303 28.924 24.799 28.924H24.583C25.627 30.292 26.491 31.21 27.175 31.678C27.877 32.146 28.444 32.38 28.876 32.38C29.29 32.38 29.605 32.272 29.821 32.056C30.037 31.822 30.19 31.651 30.28 31.543C30.424 31.363 30.577 31.273 30.739 31.273C30.811 31.273 30.847 31.309 30.847 31.381C30.847 31.399 30.838 31.426 30.82 31.462C30.82 31.498 30.811 31.543 30.793 31.597C30.685 31.885 30.496 32.2 30.226 32.542C29.956 32.884 29.659 33.208 29.335 33.514C29.425 33.568 29.506 33.658 29.578 33.784C29.65 33.874 29.569 34.018 29.335 34.216C29.101 34.432 28.831 34.612 28.525 34.756C28.219 34.918 27.994 34.981 27.85 34.945ZM17.266 17.503H17.293L17.32 17.476H17.347H17.374C17.392 17.458 17.401 17.449 17.401 17.449C17.419 17.449 17.428 17.449 17.428 17.449C17.446 17.449 17.455 17.449 17.455 17.449C17.473 17.431 17.482 17.422 17.482 17.422C17.5 17.422 17.509 17.422 17.509 17.422C17.527 17.422 17.536 17.422 17.536 17.422C17.554 17.404 17.563 17.395 17.563 17.395C17.581 17.395 17.581 17.395 17.563 17.395C17.581 17.395 17.599 17.395 17.617 17.395H17.563L17.536 17.422H17.509H17.482L17.455 17.449H17.428C17.428 17.449 17.419 17.449 17.401 17.449C17.401 17.449 17.392 17.458 17.374 17.476C17.374 17.476 17.365 17.476 17.347 17.476C17.347 17.476 17.338 17.476 17.32 17.476C17.32 17.494 17.311 17.503 17.293 17.503C17.293 17.503 17.284 17.503 17.266 17.503ZM16.888 17.638H16.915H16.942L16.969 17.611C16.987 17.611 16.996 17.611 16.996 17.611C17.014 17.593 17.014 17.584 16.996 17.584C17.014 17.584 17.023 17.584 17.023 17.584H16.996V17.611C16.996 17.611 16.987 17.611 16.969 17.611C16.951 17.611 16.942 17.62 16.942 17.638C16.942 17.638 16.933 17.638 16.915 17.638C16.933 17.638 16.933 17.638 16.915 17.638C16.897 17.638 16.888 17.638 16.888 17.638ZM13.864 19.339C14.26 18.961 14.719 18.637 15.241 18.367C15.781 18.097 16.33 17.854 16.888 17.638C16.384 17.836 15.898 18.061 15.43 18.313C14.962 18.565 14.512 18.853 14.08 19.177L13.864 19.339ZM13.783 19.393C13.783 19.393 13.774 19.402 13.756 19.42C13.756 19.42 13.729 19.447 13.675 19.501C13.603 19.537 13.567 19.555 13.567 19.555C13.567 19.555 13.585 19.546 13.621 19.528C13.657 19.492 13.711 19.447 13.783 19.393L13.675 19.447L13.864 19.339L13.783 19.393Z" fill="white"/>
</svg>
